# xmcd
#
# Track frame offsets: 
#        150
#        20707
#        41542
#        65027
#        81772
#        89700
#        100282
#        117210
#        132550
#        151960
#        166465
#        186657
#        205545
#        221807
#        238940
#        263500
#        285517
#        298965
#        319765
#        334397
#
# Disc length: 4783 seconds
#
# Revision: 11
# Processed by: cddbd v1.5.2PL0 Copyright (c) Steve Scherf et al.
# Submitted via: ExactAudioCopyFreeDBPlugin 1.0
#
DISCID=3e12ad14
DTITLE=Various Artist - The Soul of a Man -A Film By Wim Wenders-
DYEAR=2003
DGENRE=Blues
TTITLE0=Cassandra Wilson - Vietnam Blues
TTITLE1=Eagle-Eye Cherry, Vernon Reid and James Blood Ulmer - Down In Mi
TTITLE1=ssissippi
TTITLE2=Lucinda Williams - Hard Times Killing Floor Blues
TTITLE3=Lou Reed - Look Down The Road
TTITLE4=Nick Cave and The Bad Seeds - I Feel So Good
TTITLE5=Cassandra Wilson - Slow Down
TTITLE6=T Bone Burnett - Don't Dog Your Woman
TTITLE7=Los Lobos - Voodoo Music
TTITLE8=John Mayall and The Bluesbreakers - The Death of J.B. Lenoir
TTITLE9=J.B. Lenoir - Alabama
TTITLE10=Shemekia Copeland - God's Word
TTITLE11=Alvin Youngblood Hart - Illinois Blues
TTITLE12=Beck - I'm So Glad
TTITLE13=The Jon Spencer Blues Explosion - Special Rider Blues
TTITLE14=Marc Ribot - Dark Was The Night, Cold Was The Ground
TTITLE15=Bonnie Raitt - Devil Got My Woman
TTITLE16=Skip James - Crow Jane
TTITLE17=Garland Jeffreys - Washington D.C. Hospital Center Blues
TTITLE18=Blind Willie Johnson - Soul Of A Man
TTITLE19=Lou Reed - See That My Grave Is Kept Clean
EXTD=The Soul of a Man\nA Film by Wim Wenders\n\nContemporary artists 
EXTD=interpreting J.B. Lenoir, Nehemian "Skip" James, and Blind Willie
EXTD=Johnson. ID3G:0 YEAR: 2003
EXTT0=
EXTT1=
EXTT2=
EXTT3=
EXTT4=
EXTT5=
EXTT6=
EXTT7=
EXTT8=
EXTT9=
EXTT10=
EXTT11=
EXTT12=
EXTT13=
EXTT14=
EXTT15=
EXTT16=
EXTT17=
EXTT18=
EXTT19=
PLAYORDER=
